<svg id="Layer_1" data-name="Layer 1" xmlns="http://www.w3.org/2000/svg" viewBox="0 0 166.14 122.37"><defs><style>.cls-1{fill:#2d5b97;}.cls-2{fill:none;stroke:#e2e4ea;stroke-miterlimit:10;stroke-width:0.15px;}.cls-3{fill:#fff;}.cls-4{fill:#dc4445;}.cls-5{fill:#1d1d1b;}</style></defs><rect class="cls-1" x="42.14" y="119.6" width="27.16" height="2.69"/><rect class="cls-2" x="42.14" y="119.6" width="27.16" height="2.69"/><rect class="cls-3" x="69.42" y="119.6" width="27.16" height="2.69"/><rect class="cls-2" x="69.42" y="119.6" width="27.16" height="2.69"/><rect class="cls-4" x="96.69" y="119.6" width="27.16" height="2.69"/><rect class="cls-2" x="96.69" y="119.6" width="27.16" height="2.69"/><path class="cls-5" d="M114.52,86.71a1.26,1.26,0,0,0,.55-.1,1.62,1.62,0,0,0,.45-.35l.17-.2.13-.25.17-.23.16-.22.1-.26.1-.27.1-.24.1-.24.22-.51,0-.27.05-.28.18-.5.17-.53V80.63l0-.27,0-.26v-.27l0-.26v-.29l0-.26.05-.28,0-.28v-.28l0-.29.1-.56.07-.55,0,0a1.5,1.5,0,0,0-.53-.37l-.28-.07h-.6l-.27,0-.23.11-.24.14-.24.12-.21.18a2.38,2.38,0,0,0-.35.4l-.16.2-.14.23-.14.24-.11.24-.15.24-.12.23-.2.48-.1.26-.1.25-.05.26,0,.26-.1.26-.08.25-.06.26,0,.26-.07.53,0,.27,0,.26,0,.26v.8l0,.26,0,.26,0,.51v.26l0,.27,0,.26.07.27.11.23.12.24.13.21.19.19.15.19.18.14.21,0h.23Zm7.42-4.15v0l.3.07,0,.08-.1.25-.1.25,0,.28-.05.27-.15.51-.12.25-.12.25-.08.26-.07.27-.13.24-.13.24-.27.47-.19.23-.18.18a2.65,2.65,0,0,1-.48.3l-.25.07-.27,0-.25,0-.25-.09a1.33,1.33,0,0,1-.48-.2l-.2-.15-.17-.2-.19-.2-.13-.23-.14-.25-.11-.25-.13-.53,0-.28,0-.27-.08-.56,0-.25,0-.27-.13.52-.25.51a3.71,3.71,0,0,1-.2.5l-.07.26-.08.27-.16.24-.14.24-.15.22-.17.2a3.91,3.91,0,0,1-.35.43l-.25.14-.25.11a1.64,1.64,0,0,1-.53.08h-.28L114,87l-.27-.08-.26-.09-.22-.14-.23-.19-.21-.18-.19-.22-.17-.18-.15-.2-.11-.22-.12-.26-.12-.22-.13-.23,0-.25,0-.25-.06-.25,0-.26,0-.25,0-.25,0-.25V81.71l.07-.53a2.27,2.27,0,0,1,.13-.53l.06-.26.09-.27.1-.24.1-.23.11-.25.11-.26.09-.25.09-.25.15-.23.12-.22.7-.81.2-.21.2-.19.25-.16.25-.14a2,2,0,0,1,.48-.3l.24-.12.25-.11.29-.1.26-.08.29,0h.29a2.7,2.7,0,0,1,.65.07l.28.12.27.19,0-.51.07-.5.1-.53.1-.5,0-.53.08-.25.05-.25.09-.5.05-.53.07-.25.06-.26,0-.26,0-.26.08-.53.07-.25,0-.25,0-.29.08-.29,0-.3,0-.28.08-.29.07-.26,0-.09,0,0a.8.8,0,0,1,.33,0l.32,0a.79.79,0,0,0,.34,0c.06,0,.15,0,.29.09l.05.1-.08.17-.06.27-.06.26-.15.53,0,.29v.26l-.15.56-.06.26-.06.26-.08.56-.06.27-.06.28,0,.55-.08.27-.07.26-.15,1.11,0,.26-.08.27v.55l-.06.29-.07.26-.07.56,0,.52-.08.56v.26l0,.26,0,.27-.06.26,0,.53,0,.26,0,.27,0,.26v.27l0,.29v.79l0,.26,0,.27v1.08l0,.26.06.26,0,.28v.25l0,.56.1.53.1.26.1.24.12.25.13.2a.71.71,0,0,0,.55.3l.27,0,.25-.12a2,2,0,0,0,.43-.36l.17-.2.18-.22.13-.25.14-.26.1-.25.1-.25.08-.28.07-.27.11-.27.11-.26,0-.28.05-.27.18-.53Z" transform="translate(-41.68 -27.73)"/><path class="cls-5" d="M114.52,86.71V87a1.53,1.53,0,0,0,.66-.12h0a2.17,2.17,0,0,0,.51-.4h0l.17-.21,0,0,.14-.26.15-.21h0l.16-.23,0,0,.11-.28.1-.29.1-.23h0l.1-.23-.23-.1.23.1L117,84l0,0,0-.31h0l.05-.25.16-.49h0l.17-.53,0,0,0-.32h0v-.8h0v-.54l0-.24,0-.25v-.3l0-.26h0l0-.29V79l0-.25v0l0-.28h0v-.29h0l0-.28.09-.53h0l.08-.56,0-.11-.11-.12h0a1.67,1.67,0,0,0-.61-.45h0l-.31-.07h-.67l-.28,0h0l-.27.13h0l-.24.14-.24.12h0l-.23.2h0a2.56,2.56,0,0,0-.4.45l.21.14-.2-.16-.16.21h0l-.14.24h0l-.13.24h0l-.11.24-.14.22h0l-.13.25h0l-.21.49-.1.25-.1.25v0l-.05.28,0,.25-.09.22h0l-.08.27h0l-.07.27h0l0,.28-.07.53h0l0,.27v0l0,.26,0,.24h0v.8h0l0,.28v.05l0,.22,0,.49v.26h0l0,.28,0,.28h0l.08.27v0l.12.26,0,.11.06.13v0l.14.22,0,0,.19.2.14.18,0,0,.2.16,0,0,.27.07h.29v-.25h-.25V87h.25v-.25h.26v-.3h-.46l-.13,0-.11-.09-.13-.16h0l-.18-.18-.11-.18-.11-.22-.05-.12,0-.1-.07-.24,0-.25,0-.24v-.25h0l0-.51,0-.26h0l0-.25V82.8h0v-.26l0-.25v-.53l.07-.52,0-.25.06-.25.06-.23.1-.24v0l.05-.28,0-.24.09-.23v0l.09-.23-.23-.1.23.1.19-.47.12-.22.14-.23h0l.12-.25.13-.22-.22-.13.22.13.12-.21.16-.19h0a1.67,1.67,0,0,1,.3-.36l.19-.16.22-.11h0l.23-.14.2-.09.2,0h.24l.31,0,.27.05,0-.24-.1.23a1.22,1.22,0,0,1,.44.31l0,0,.19-.17-.25,0-.07.55.25,0-.25,0-.1.55v.33h0v.28h.25l-.25,0,0,.27-.05.26v0l0,.28v.28l0,.26h0v.25l0,.25h0l0,.27h0v.83l0,.28h0l0,.28h0v.22l-.16.48.24.08-.24-.08-.18.5v0l-.06.29,0,.25-.21.48-.11.24h0l-.09.24h0L116,85l-.09.22-.14.2h0l-.16.23h0l-.13.25-.15.18.19.16-.18-.18a1.46,1.46,0,0,1-.38.31l.11.22-.1-.23a1.07,1.07,0,0,1-.45.08v.25h0Zm7.42-4.15h.25v0h-.25l-.06.24.3.08.06-.25-.24.08,0,.08.24-.08L122,82.6l-.1.25h0l-.1.25v0l0,.3,0,.26-.14.48-.12.23,0,0-.1.2v0l-.08.29-.07.24-.11.21h0l-.12.23-.27.46-.16.2-.18.16.18.19-.16-.2a1.73,1.73,0,0,1-.42.27l.1.23L120,86.7l-.23.06-.22,0-.19,0-.23-.08h0a1.23,1.23,0,0,1-.39-.16l-.15.2.16-.2-.18-.13-.16-.19h0l-.18-.18-.11-.2-.14-.24-.09-.22-.12-.49,0-.27h0l0-.27-.08-.56h0l0-.24,0-.27-.15-1.52-.47,2-.23.48h0v0a3.94,3.94,0,0,1-.19.48h0l-.08.29-.07.22-.14.21h0l-.14.24-.14.2-.16.19h0c-.13.17-.25.31-.33.4l.18.17-.12-.22-.24.14-.24.1.1.23-.08-.24a1.42,1.42,0,0,1-.45.07h-.27l-.22,0-.24-.08-.23-.08-.19-.12-.2-.17-.2-.16-.17-.21h0l-.17-.17-.13-.17-.1-.2-.11-.25h0l-.13-.24h0l-.11-.2,0-.21h0l0-.25h0l-.06-.24,0-.24h0l0-.25,0-.23h0l0-.24v-.76h0v-.49l.07-.51h0a2.32,2.32,0,0,1,.12-.47v0l.06-.26.08-.25.1-.23h0l.09-.23-.23-.09.23.1.11-.25,0-.08.07-.18h0l.09-.27.08-.22.13-.2h0l.12-.21.68-.78.19-.2.18-.17.22-.15.24-.13h0l0,0a1.66,1.66,0,0,1,.42-.26h0l.25-.12.24-.11.27-.09.23-.07.25,0h.28a2.1,2.1,0,0,1,.58.07l.07-.25-.1.24.26.1.24.17.35.25.1-.92.07-.5-.25,0,.25.05.1-.53h0l.1-.5h0l0-.52.07-.23h0l0-.26h0l.1-.51h0l.05-.52.06-.23h0l.06-.25h0l0-.27h0l0-.28-.26,0,.25,0,.08-.51.07-.23h0l0-.26h0l0-.28.07-.28v0l0-.31,0-.26.07-.28-.24-.06.24.07.08-.26,0-.07,0-.16-.24.07.21.14,0,0-.21-.14,0,.25.21,0h0v-.11l0,.1h0v-.11l0,.1h0a1.43,1.43,0,0,0,.38.07l0-.25,0,.24.29,0,.2,0-.1-.23.1.23,0-.12v.13h0l0-.12v.13h0v0l.11.06.14-.21-.23.11,0,.1.23-.11-.24-.1-.07.18v0l-.07.28v0l0,.22.25.06-.25-.07-.15.53v0l0,.32v.23l-.14.53-.06.27h0l-.07.27h0l-.07.55-.07.27h0l-.06.27v0l0,.55-.07.24-.07.26v0l-.15,1.12,0,.25-.07.25v.59l-.06.26.25.06-.25-.06-.06.26v0l-.08.56v0l0,.51-.07.55v.29l0,.24,0,.25-.06.25v0l0,.55h0l0,.25,0,.25h0l0,.28h0v.27l0,.28h0v.79l0,.26,0,.26v1.1h0l0,.28v0l0,.24,0,.24h0v.28l0,.56h0l.1.54v0l.1.29h0l.11.24h0l.13.26h0l.13.21v0h0a1,1,0,0,0,.75.39h0l.3,0h0l.28-.14h0a1.77,1.77,0,0,0,.5-.41l.17-.2h0l.18-.23h0l.14-.27.14-.25v0l.1-.27.1-.25h0l.08-.29v0l.06-.23.1-.25h0l.11-.26v0l0-.3.05-.26.17-.51v-.11h-.5v0h.25l-.24-.08-.17.53h0l0,.3,0,.25-.1.23,0,.06-.09.21h0l-.08.3h0l-.07.26-.09.24-.1.24-.13.23,0,.05-.1.19-.16.2-.17.2h0a1.59,1.59,0,0,1-.36.3l.12.22-.11-.23-.22.11-.24,0,0,.24v-.25a.48.48,0,0,1-.36-.21l-.19.16.21-.13-.12-.2-.11-.23-.1-.23-.23.1.23-.09-.09-.24-.09-.5,0-.53v-.23l0-.26v0l-.06-.29,0-.23v-.24l0-.27h0v-.54l0-.25,0-.27h0v-.79l0-.28h0v-.27l0-.24,0-.25h0l0-.27,0-.52.06-.24v0l0-.27,0-.27V78l.07-.53v0l0-.52-.25,0,.25,0,.07-.54.06-.25.07-.3v-.3h0v-.25l.07-.24h0l.06-.27h0l.15-1.1.07-.24v-.06l.06-.21v0l0-.56.06-.26.06-.28h0l.08-.55.06-.25h0l.06-.27-.25,0,.25.06.15-.55v0l0-.29v-.26l.14-.5h0l.06-.26h0l.06-.25.07-.15,0-.11-.1-.2,0-.07-.06,0a.72.72,0,0,0-.37-.13l-.15,0h0l0,.07v-.08h0l0,.07v-.08h0l-.19,0h0l-.27,0h0l-.15,0-.31,0-.1,0-.08.12-.06.1,0,.13,0,.19h0l-.07.29h0l-.05.29h0l0,.3-.07.26v0l0,.29.24,0-.24,0,0,.24-.07.24h0l-.07.55h0l0,.26,0,.24-.06.25-.06.25v0l-.06.53-.09.49-.05.24-.07.24v0l0,.54-.1.5-.1.52h0l-.07.51,0,.51.25,0,.14-.21-.26-.19h0l-.31-.13h0a2.71,2.71,0,0,0-.71-.08h-.3l-.3,0h0l-.29.08h0l-.3.1h0L115,76l-.25.11h0a2.85,2.85,0,0,0-.53.33l.16.2-.12-.22-.25.14h0l-.26.17h0l-.21.21h0l-.2.22h0l-.71.81v0l-.14.25-.14.21,0,0-.1.28-.08.24-.11.24,0,.08-.08.17h0l-.1.24-.1.24h0l-.09.28h0l-.07.27.25.06-.24-.08a2.57,2.57,0,0,0-.14.58l.25,0-.25,0-.07.52v.79l0,.27h0V83h0l0,.27,0,.25h0l.06.26.24-.05-.24,0,0,.25h0l.07.26.05.25h0l0,.25v0l.15.26h0l.12.22.11.24h0l.11.23v0l.17.22v0l.18.18.18.21v0l.23.2h0l.2.17h0l.24.15,0,0,.29.09.27.09h0l.29,0h.31a1.91,1.91,0,0,0,.61-.09h0l.26-.12h0l.26-.15h0l0,0a5.62,5.62,0,0,0,.37-.46l-.2-.15.19.17.17-.2h0l.16-.24h0l.13-.24.16-.23,0,0,.09-.31.07-.26-.24-.07.23.1a4,4,0,0,0,.21-.52l-.24-.08.23.11.25-.5v0l.13-.55-.24-.06-.25,0,0,.28h0l0,.25.08.55,0,.28h0l0,.27v0l.13.54v0l.12.27h0l.15.26h0l.14.23v0l.2.22.17.2,0,0,.22.16h0a1.69,1.69,0,0,0,.56.24l.06-.25-.08.24.24.09h0l.27,0h0l.31,0h0l.27-.08h0a2.06,2.06,0,0,0,.53-.34h0l.2-.19h0l.2-.24h0l.28-.5.13-.24h0l.13-.23v0l.08-.29h0l.07-.24.12-.23.12-.25v0l.15-.52v0l.05-.29,0-.25.09-.23.1-.25,0-.08,0-.16,0-.14-.44-.11-.31-.08v.35Z" transform="translate(-41.68 -27.73)"/><path class="cls-5" d="M129.68,85.1l.18-.21.17-.2.15-.22.16-.21.14-.24.15-.23.12-.22.13-.24.12-.24a2.21,2.21,0,0,0,.15-.5l.18,0,.12.11a2.23,2.23,0,0,1-.15.52l-.11.27-.14.26-.12.23-.18.24-.13.23-.19.22-.16.23-.19.22-.17.21-.18.22-.4.34-.42.3-.21.18-.21.13a4.07,4.07,0,0,1-.47.24l-.24.08-.24.07-.26.08L127,87l-.25,0h-.25l-.28,0H126l-.53-.08-.5-.15-.24-.08-.25-.09-.48-.23a2.3,2.3,0,0,1-.42-.35l-.2-.16-.17-.18-.18-.2-.15-.23-.3-.42-.09-.25-.1-.25-.15-.5a2.18,2.18,0,0,1-.13-.5l0-.26v-.27l0-.26V81.27l.08-.52.12-.53.05-.26.08-.26.17-.5.09-.25.11-.25.12-.24.13-.24.32-.42.16-.21.19-.19L124,77l.43-.33.23-.16.24-.14.25-.08.25-.09.26-.09.26-.06.27,0h.28l.28,0,.26.07.25.09.25.11a1.76,1.76,0,0,1,.45.35l.16.21.14.24a2.12,2.12,0,0,1,.17.55l.07.25.06.27,0,.28v.82l-.08.53-.06.25-.09.25-.15.5-.12.23-.15.24-.14.24-.16.23-.18.23-.22.2-.2.21-.22.19-.47.3-.26.14-.26.11-.29.1-.26.1-.29.1-.26.07-.34.08-.36.05,0-.33.39-.05.26,0,.52-.15.26-.1.27-.1.23-.1.24-.12.45-.3A2.79,2.79,0,0,0,127,82l.18-.2.17-.23.32-.42.2-.45.09-.24.09-.23a3.33,3.33,0,0,0,.12-.48l.07-.5,0-.25,0-.25v-.23l0-.32,0-.27-.07-.28-.11-.26-.14-.26a1.48,1.48,0,0,0-.35-.4,2,2,0,0,0-.5-.3l-.24-.08-.3,0-.25,0-.25.08-.21.12-.21.13-.21.14-.19.19-.15.17-.17.2-.3.43-.23.45-.11.25-.11.25L124,79l-.1.25-.13.5-.07.26,0,.26,0,.25-.07.25-.05.52,0,.27,0,.28,0,.27v.26l0,.26,0,.26v.27l0,.28,0,.26,0,.27.06.25.09.25.09.25.08.25c.09.18.17.34.25.47l.3.42.21.23.22.17.26.15.26.11.26.09.29.08.29,0,.3,0h.28l.27,0,.55-.15.52-.23.24-.16.23-.16.24-.15.24-.17.39-.38.2-.19" transform="translate(-41.68 -27.73)"/><path class="cls-5" d="M129.68,85.1l.2.16.17-.21.17-.19v0l.16-.23.15-.2v0l.14-.24.15-.22h0l.13-.23.13-.24.13-.24h0a3.47,3.47,0,0,0,.16-.55l-.25,0,0,.25h.05l0,0,.17-.18-.25,0a2.42,2.42,0,0,1-.13.48l.23.09-.23-.1-.11.26-.13.25-.12.22-.16.23h0l-.13.22-.17.21h0l-.16.22-.18.22h0l-.18.21h0l-.16.2-.37.33-.41.29h0l-.21.17-.19.12h0a3.67,3.67,0,0,1-.45.24l.11.22-.08-.24-.24.08-.23.07-.25.07-.24,0-.22,0h-.54l-.23,0-.48-.07-.48-.14-.24-.09h0l-.24-.08-.46-.22-.11.22.14-.2a3.79,3.79,0,0,1-.38-.32h0l-.2-.16-.16-.17-.16-.19-.14-.21h0l-.28-.41-.09-.22-.09-.23-.15-.5h0a2.35,2.35,0,0,1-.11-.44l-.25,0,.25,0,0-.25v-.27l0-.26v-.25h0v-.53H122l.25,0v-.27h0v-.25l.07-.5.13-.51h0l.05-.25.07-.24.17-.5h0l.08-.24.11-.23.12-.23.11-.22.31-.41h0l.15-.2.18-.17h0l.36-.38.4-.31.23-.16.21-.12.22-.07.25-.09-.08-.24.08.24.25-.08.24-.06.25,0h.24l.25,0,.23.07.23.08.24.11.1-.23-.12.22a1.74,1.74,0,0,1,.38.29l.19-.16-.2.15.15.2.13.23.22-.13-.23.11a2,2,0,0,1,.16.49l.06.26.25-.06-.25,0,.06.26,0,.25v.79l-.07.5-.06.23-.08.23h0l-.15.48-.11.21-.14.23h0l-.13.23-.15.22-.17.21-.2.19h0l-.19.21-.2.16-.45.29-.24.13-.25.1-.27.1h0l-.26.1-.27.1-.26.07.07.24-.06-.24-.32.07,0,.25,0-.25h-.12v-.08l-.25,0,0,.25.38-.05h0l.27,0h0l.53-.15h0l.27-.1.27-.1h0L126,83h0l.25-.13h0a4.25,4.25,0,0,0,.47-.31l-.15-.2.14.21a4,4,0,0,0,.46-.38h0l.18-.2h0l.18-.23.32-.43,0,0,.21-.48h0l.09-.25h0l.08-.24h0a2.46,2.46,0,0,0,.14-.53l-.25,0,.25,0,.07-.5h0l0-.25,0-.25v0l0-.26h0l0-.32h0l0-.28h0l-.08-.28v0l-.12-.28h0l-.14-.27h0a1.86,1.86,0,0,0-.4-.47h0a2.49,2.49,0,0,0-.56-.33h0l-.26-.08h0l-.32,0h0l-.28,0h0l-.27.1h0l-.23.12h0l-.22.14h0l-.21.14,0,0-.21.2h0l-.15.18-.17.2h0l-.31.43v0l-.23.47-.12.25h0l-.11.25h0l-.11.25h0l-.1.26h0l-.13.52.24.06-.24-.07-.07.26h0l0,.27,0,.24-.07.24v0l-.06.55h0l0,.26,0,.29h0v.26h0v.27h0l0,.28h0l0,.26v.25h0l0,.29h0l0,.26v0l0,.26h0l.06.26h0l.09.26h0l.09.25h0l.09.25h0q.13.29.27.51h0l.31.43h0l.22.24h0l.23.19h0l.28.16h0l.28.11.26.1h0l.3.08h0l.31,0h.62l.28,0h0l.57-.16h0l.54-.23h0l.26-.18h0l.23-.16.23-.15h0l.25-.18h0l.41-.38.2-.19v0h0l-.2-.16-.17-.18-.2.19h0l-.39.36-.21.16-.23.15h0l-.25.16-.21.15-.49.21-.51.14-.24,0h-.55l-.26,0-.26-.07-.24-.09-.25-.09-.22-.13-.19-.16-.18-.19-.29-.41-.21.14.22-.13a3.06,3.06,0,0,1-.24-.45l-.23.11.24-.09-.09-.25h0l-.08-.25h0l-.08-.23-.06-.23,0-.25,0-.23,0-.29v-.26h0l0-.27h0l0-.25v-.24h0l0-.26-.25,0,.25,0,0-.29h0l0-.26,0-.5.07-.23h0l0-.26,0-.25.07-.25h0l.12-.49.09-.23h0l.1-.24.11-.25h0l.11-.25-.23-.1.23.11.21-.43.28-.4.17-.19.14-.17.17-.16.18-.13.21-.13.18-.09.21-.08.2,0,.24,0,.22.07.07-.24-.09.23a1.94,1.94,0,0,1,.44.27l.15-.2-.17.19a1.32,1.32,0,0,1,.3.33l.22-.12-.22.12.13.25.1.23L128,78l.05.26,0,.3v.21l0,.23h0l0,.24-.07.49h0a1.87,1.87,0,0,1-.11.42h0l-.09.24-.08.23-.19.41-.3.4-.17.22-.17.19L127,82l-.18-.18a2.8,2.8,0,0,1-.38.32h0c-.13.09-.27.19-.43.28l.13.22L126,82.4l-.23.12-.22.09-.26.1-.25.09-.5.15-.24,0L124,83l-.25,0,.09.58,0,.24.61-.08h0a3.08,3.08,0,0,0,.35-.07h0l.26-.07h0l.29-.1h0l.26-.09.29-.1h0l.27-.11h0l.26-.14h0l.49-.31h0l.24-.2h0l.2-.21.21-.2h0l.2-.23h0l.17-.25h0l.14-.24.14-.23h0l.13-.25v0l.15-.52.09-.24h0l.07-.26v0l.08-.53v-.58h0v-.28h0l0-.29v0l-.07-.29h0l-.06-.25-.25.06.25-.05a2.45,2.45,0,0,0-.19-.61h0l-.14-.24v0l-.17-.22h0a2.45,2.45,0,0,0-.51-.4h0L127.4,76h0l-.26-.09h0l-.27-.08h0l-.31,0h-.32l-.29,0h0l-.27.07h0l-.27.09h0l-.25.09h0l-.2.08h0l-.25.15h0l-.25.17h0l-.43.33h0l-.38.41-.18.19h0l-.17.23h0l-.32.42,0,0-.13.25-.12.24h0l-.11.26h0l-.09.26h0l-.17.5h0l-.08.27h0l-.06.27.25,0-.24-.06-.13.53h0l-.08.53h0v.54h0v.53h0v.27h0l0,.26v.25h0l0,.27h0A2.47,2.47,0,0,0,122,84l.24-.08-.24.07.15.5h0l.1.26.1.25v0l.32.45.2-.15-.21.14.15.23h0l.19.21h0l.18.18v0l.21.17.16-.2-.18.18a3.19,3.19,0,0,0,.46.38h0l.49.24h0l.26.09.25.09h0l.5.15h0l.54.08h.84l.26,0h0l.27,0h0l.27-.07h0l.24-.08h0l.22-.07h0a3.31,3.31,0,0,0,.5-.26l.21-.13h0l.22-.18.41-.29h0l.41-.36h0l.19-.23h0l.18-.21h0l.18-.22h0l.16-.22.18-.22v0l.14-.23.17-.23h0l.14-.26h0l.13-.26h0l.11-.27h0a3.83,3.83,0,0,0,.16-.58l0-.14-.23-.2-.09-.09-.3.07-.16,0,0,.16a2.42,2.42,0,0,1-.13.46l.23.09-.22-.11-.13.23h0l-.12.24.22.12-.22-.13-.12.22-.14.22h0l-.13.24-.15.19h0l-.15.22-.16.18-.18.22.19.16-.17-.18Z" transform="translate(-41.68 -27.73)"/><path class="cls-5" d="M134.45,75.41l-.19.18-.13.22-.15.24-.1.23,0,.28,0,.28,0,.26.06.26.09.26.08.26.13.24.12.24.15.22.17.23.12.22.15.23.32.43.3.45.18.22.16.23.19.22.16.23.16.25.13.25a2.42,2.42,0,0,1,.32.47l.13.26.09.27.11.26.11.26.09.27.09.26,0,.28,0,.29v.5a2.18,2.18,0,0,1-.13.5l-.11.24-.11.24-.11.22-.16.2a1.35,1.35,0,0,1-.37.35l-.26.17-.28.11-.26.11-.28.11-.3,0-.29,0-.3,0H134l-.25,0-.24,0-.25-.09-.23-.08-.24-.07-.21-.16-.18-.19-.13-.16-.14-.22a3.9,3.9,0,0,1-.2-.42l0-.24,0-.24,0-.24.05-.23a.79.79,0,0,1,.2-.4l.14,0,.08.13-.14.31a2.58,2.58,0,0,0,0,.39l0,.25.1.33.12.25.2.25.2.19.24.16a3.34,3.34,0,0,0,.57.15l.27,0h.32a1.28,1.28,0,0,0,.56-.1l.24-.12.23-.18a2,2,0,0,0,.4-.42,2.47,2.47,0,0,0,.22-.53l.07-.29.07-.28,0-.29v-.29a2.37,2.37,0,0,0-.08-.57l-.17-.55-.1-.26-.12-.29-.22-.53-.14-.26-.11-.27-.12-.27-.12-.27-.13-.25-.14-.25-.23-.53-.24-.5-.22-.53-.09-.26-.09-.26-.17-.55a4.33,4.33,0,0,1-.12-.55l0-.29v-.26l-.17.45-.15.5-.09.26-.08.27-.11.24-.11.28-.06.26-.07.27-.14.55-.15.52-.15.55-.15.53-.14.55-.15.45a2.61,2.61,0,0,0-.1.42l-.17,0-.13-.1.07-.27.06-.26.12-.52.15-.53.17-.52.15-.53.12-.55.07-.26.08-.27.34-1,.08-.26.07-.26.44-1,.25-.5.16-.24.16-.21a1.48,1.48,0,0,1,.42-.38,1.33,1.33,0,0,1,.51-.17,1.17,1.17,0,0,1,.57,0l.28.08.26.1.26.12.24.15a1.21,1.21,0,0,1,.51.5.74.74,0,0,1,0,.53.59.59,0,0,1-.37.43h-.17a1.11,1.11,0,0,1-.47-.13l-.22-.11-.17-.17a.89.89,0,0,1-.17-.37.58.58,0,0,1,.12-.43l.22-.22a2.51,2.51,0,0,0-.62-.08,1.58,1.58,0,0,0-.61.08" transform="translate(-41.68 -27.73)"/><path class="cls-5" d="M134.45,75.41l-.18-.18-.18.19,0,0-.15.24-.15.23v0l-.11.26v0l0,.3v.33l0,.28v0l.07.27h0l.09.27h0l.09.26v0l.13.26.13.24h0l.16.23h0l.17.22.11.21h0l.15.24h0l.33.42.29.44v0l.19.22.16.22h0l.19.23.15.21.15.24.13.24v0l0,0a2.47,2.47,0,0,1,.29.43l.22-.12-.23.11.12.25.1.25h0l.11.27v0l.1.23.08.25,0,.12,0,.12,0,.26v.51l0,.24h.26l-.25,0a2.55,2.55,0,0,1-.11.44l.23.08-.23-.1-.11.23-.1.24-.1.2-.15.18h0a1.15,1.15,0,0,1-.3.29h0l-.24.15-.26.11h0l-.25.11-.26.1-.26,0-.28,0h0l-.29,0H134l-.22,0-.22,0-.22-.08h0l-.23-.08-.2-.06-.16-.12-.16-.17-.12-.14-.13-.2-.21.13.22-.12a2.2,2.2,0,0,1-.18-.39l-.24.09.25,0,0-.22v-.21l0-.21,0-.22-.24,0,.24.06a.64.64,0,0,1,.13-.28l-.17-.18-.07.24h0l0,0,.23-.12-.24-.1-.13.31v0a2.2,2.2,0,0,0-.05.44v0l0,.26v0l.11.35v0l.13.27,0,0,.21.27v0l.21.2h0l.26.18H133a2.66,2.66,0,0,0,.62.17h0l.28,0h.35a1.6,1.6,0,0,0,.67-.13h0l.25-.13h0l.25-.19h0a2.52,2.52,0,0,0,.45-.48h0a2.55,2.55,0,0,0,.25-.59h0l.07-.29.08-.29v0l0-.31h0v-.3a2.79,2.79,0,0,0-.08-.63h0l-.18-.56h0l-.1-.27h0l-.13-.29-.22-.53h0l-.14-.27-.1-.25-.13-.28h0l-.12-.28-.13-.25h0l-.15-.25-.21-.51h0l-.24-.5-.22-.5-.08-.26-.09-.26-.24.08.24-.07-.17-.56h0a2.56,2.56,0,0,1-.11-.5l0-.28V76.7l-.05-1.21L133,77.08l-.15.5-.09.26h0l-.08.25-.1.23h0l-.11.28h0l-.07.28-.06.27.24.06-.24-.07-.15.55.25.07-.25-.07-.14.52h0l-.15.55.24.06-.24-.07-.15.53-.15.54-.14.45h0c0,.12-.07.27-.11.44l.25,0,0-.25h-.06l0,0-.16.2.25.05.06-.26v0l.05-.21h0l.12-.52.15-.52.17-.52h0l.15-.53h0l.13-.55.07-.25h0l.07-.27-.24-.07.24.08.34-1h0l.08-.27h0l.07-.25.43-1,.24-.47.15-.22.15-.21-.2-.15.2.15a1.37,1.37,0,0,1,.34-.31h0a1.3,1.3,0,0,1,.42-.13l0-.25,0,.25.22,0,.23,0h0l.27.08.24.09.24.11.22.14h0a1,1,0,0,1,.42.38h0l.05.21,0,.13.24.07-.24-.07c-.06.18-.11.22-.2.25l.07.25,0-.25h-.14a.65.65,0,0,1-.35-.1h0l-.19-.09-.15-.14-.17.18.2-.14-.13-.29-.24.06.25,0v0l.08-.21-.2-.15.18.18.22-.23.31-.31-.43-.11a3,3,0,0,0-.68-.08v.25l0-.25h-.14a1.79,1.79,0,0,0-.57.09l-.06,0,0,0,.18.18.08.24a1.14,1.14,0,0,1,.41-.07h.12a2.53,2.53,0,0,1,.56.06l.06-.24-.18-.18-.22.23h0a.88.88,0,0,0-.18.51v.12h0a1.37,1.37,0,0,0,.21.46l0,0,.19.18,0,0,.26.13h0a1.24,1.24,0,0,0,.58.16v-.25l0,.24.09,0h0l.13,0h0a.8.8,0,0,0,.54-.6h0l0-.26a1.13,1.13,0,0,0-.1-.44l-.23.11.24-.09a1.48,1.48,0,0,0-.62-.62l-.13.21.13-.21-.23-.15h0l-.27-.13h0l-.27-.11h0l-.29-.08-.07.24.08-.24a1.23,1.23,0,0,0-.39,0l-.29,0h0a1.7,1.7,0,0,0-.61.21l.14.21-.13-.22a2,2,0,0,0-.49.44h0l-.16.22h0l-.16.24h0l-.25.52h0l-.44,1v0l-.08.27-.07.26-.34,1h0l-.08.27-.07.26h0l-.13.55-.14.51-.17.52h0l-.15.53h0l-.13.52-.06.27-.06.26,0,.15.25.2.08.07.29,0,.17,0,0-.17c0-.16.06-.3.09-.41l-.24-.06.24.07.14-.44h0l.15-.56-.25-.06.25.06.14-.52.15-.55-.24-.07.24.07.15-.53.15-.55h0l.06-.26h0l.06-.24.1-.26.11-.24h0l.09-.28h0l.09-.26h0l.15-.5.17-.44-.24-.09h-.25V77h0l0,.3.25,0-.25,0a3.19,3.19,0,0,0,.13.59l.17.56.09.26h0l.09.26h0l.23.54h0l.24.49.22.52v0l.15.25.12.25.23-.11-.23.1.12.27h0l.12.28.23-.11-.23.1.11.27h0l.13.26.22.51.12.29.09.25.17.54.24-.07-.24.06a1.89,1.89,0,0,1,.07.51v.28l0,.26-.07.26-.08.29.25.06-.25-.06a1.66,1.66,0,0,1-.19.46l.22.13-.21-.14a1.72,1.72,0,0,1-.35.37l.16.19-.15-.2-.22.17-.22.11.12.22-.1-.23a1.08,1.08,0,0,1-.46.08H134l-.26,0,0,.25,0-.25a3,3,0,0,1-.52-.13l-.09.23.14-.21-.23-.15-.17-.16-.17-.22-.1-.2-.08-.29,0-.22-.25,0h.26l0-.34-.25,0,.23.1.14-.31.05-.11-.13-.24-.06-.1-.25-.07-.14,0-.1.1a1.13,1.13,0,0,0-.27.51h0l-.05.24v0l0,.25v.29l0,.25v.05a3,3,0,0,0,.21.46h0l.14.22h0l.15.18h0l.19.19,0,0,.22.17,0,0,.27.08h0l.21.07.25.08h0l.27,0h0l.26,0h.58l.3,0,.29,0h0l.31,0h0l.3-.12h0l.26-.11.28-.11h0l.28-.17h0a2.08,2.08,0,0,0,.43-.41l-.2-.16.2.16.16-.2v0l.13-.25h0l.11-.24h0l.11-.24h0a2.55,2.55,0,0,0,.14-.56h0v-.82h0l0-.3v0l-.09-.28h0l-.09-.27h0l-.11-.27v0l-.1-.24-.1-.25v0l-.13-.27h0a2.78,2.78,0,0,0-.35-.52l-.19.17.22-.13-.13-.24h0l-.16-.26h0l-.16-.23h0l-.19-.23-.15-.22h0l-.18-.22-.29-.44h0l-.32-.42L135,78.9l-.12-.21v0l-.18-.23-.13-.21-.12-.22h0l-.11-.22-.08-.25v0l-.08-.21,0-.24,0-.23v-.24l0-.23.08-.19.13-.22h0l.12-.19.17-.17-.18-.17.08.24Z" transform="translate(-41.68 -27.73)"/><path class="cls-5" d="M98.87,79.06l.11.25.1.28.12.27.16.23c.38-.08.48-.15.88-.58.05-.15.09-.33.16-.5a1.07,1.07,0,0,0-.23-1.2,3.15,3.15,0,0,0-1.35-.91l-1.14-.34c-.43-.14-.86-.27-1.28-.42-.25-.1-.47-.25-.71-.36a1.78,1.78,0,0,0-.3-.13v.28c.18.95.4,1.89.67,2.81a2.77,2.77,0,0,0,1.69,1.72,2,2,0,0,0,1.13.1l.25-.11a6.29,6.29,0,0,1-.26-1.39m-.94,9.76c.72-.36,1.44-.7,2.13-1.11a5.54,5.54,0,0,0,1.78-1.79,2.13,2.13,0,0,0,.36-1.18c0-.42,0-.83,0-1.25a2.52,2.52,0,0,0-.08-.54.27.27,0,0,0-.27-.22,1,1,0,0,0-.45.48c-.2.36-.41.72-.61,1.09a1.43,1.43,0,0,1-.53.59c.09-.17.18-.34.26-.51s.13-.38.22-.56.22-.33.32-.5.2-.34.29-.5a.24.24,0,0,0-.3-.17,2.42,2.42,0,0,0-.53.13A3.14,3.14,0,0,0,99,84c-.16.25-.3.52-.44.78a3.65,3.65,0,0,0-.42,1.58,8,8,0,0,1-.29,1.82c0,.14-.1.28-.14.42v.23l.24-.05M92,81a9.67,9.67,0,0,1-1.75-.14,8.2,8.2,0,0,0,2-.15c0-.28-.2-.4-.36-.55a3.28,3.28,0,0,0-2-.79,5.34,5.34,0,0,0-1.44,0l-2,.32L84.83,80l-.21.07.13.23a11.11,11.11,0,0,0,2.58,1.76,4.7,4.7,0,0,0,1.59.39,10,10,0,0,0,2.44-.13,2.81,2.81,0,0,0,.48-.12,1.16,1.16,0,0,0,.74-.86L92,81m-2.68,8c.18-.38.36-.75.55-1.12a4.54,4.54,0,0,0,.39-1.18c.07-.33.15-.65.21-1a6.21,6.21,0,0,1,.66-1.82,3.43,3.43,0,0,1,1.53-1.46,2,2,0,0,1,.67-.19,9.15,9.15,0,0,1,1-.1,1.44,1.44,0,0,0,.8-.26l.5-.32.13-.21-.22-.08c-.74,0-1.49-.07-2.24-.09l-.37.08a2.69,2.69,0,0,0-.17.34,1.53,1.53,0,0,1-1.09.87,3.55,3.55,0,0,1-.64.1c-.68,0-1.37,0-2,0a5,5,0,0,1-3-1c-.69-.53-1.35-1.08-2-1.62l-.13-.2.28,0a5.3,5.3,0,0,0,.69,0c.91-.12,1.82-.25,2.72-.4a11.75,11.75,0,0,1,2.13-.22,3.86,3.86,0,0,1,1.76.51c.52.29,1,.62,1.52.92l.16.37.26,0,1.59.07c.3,0,.61,0,.9,0,1.07.1,2.13.07,3.2.09l.4,0,.11-.11-.18-.23h-1a2.17,2.17,0,0,1-1.19-.34,8.86,8.86,0,0,1-.72-.53,1.85,1.85,0,0,1-.58-.85,17.19,17.19,0,0,1-.62-2.42,11.67,11.67,0,0,0-.44-1.74l-.24-.6,0-.14.09-.06.13,0,.05,0,.12.27a2.72,2.72,0,0,0,1.54,1.42c.54.19,1.07.37,1.62.51.31.07.6.18.91.28a3.16,3.16,0,0,1,1.45,1,1.15,1.15,0,0,1,.31.92c0,.18,0,.36,0,.51a2.32,2.32,0,0,1-.94,1l-.11.1-.08.14.1.3a1.38,1.38,0,0,0,.87.4l.59,0,2.65,0a3.4,3.4,0,0,1,.45,0,2.37,2.37,0,0,0,1,0l.29,0-.15.11a2,2,0,0,1-.94.09,1.38,1.38,0,0,0-1.1.16l-.14,0a.93.93,0,0,0-.7.33c-.18.19-.42.33-.5.6l.08.14a1.24,1.24,0,0,1,.3.88c0,.37,0,.74,0,1.1a1.86,1.86,0,0,1-.62,1.67l-.07.08a6.24,6.24,0,0,1-2.3,1.87c-.37.17-.72.36-1.07.54s-.58.33-.88.48c-.1,0-.2.14-.34,0l.06-.21c.09-.25.19-.5.27-.75a9.25,9.25,0,0,0,.4-2.21A3.31,3.31,0,0,1,98.18,85c.14-.28.31-.55.45-.83a3.19,3.19,0,0,1,1.3-1.35,2.27,2.27,0,0,1,1.07-.36l.8-.11c.25-.33.58-.58.84-.89a.47.47,0,0,0-.44-.14c-.68,0-1.36,0-2,0a21.94,21.94,0,0,1-2.69,0,2.45,2.45,0,0,0-1.54.34l-.39.22a3.7,3.7,0,0,0-1.4,1.32,2.17,2.17,0,0,1-.51.66c.13-.51.53-.89.65-1.39a.44.44,0,0,0-.4-.1,3.14,3.14,0,0,0-2.74,2A3.72,3.72,0,0,0,90.71,86l-.06.29c-.16.56-.33,1.12-.49,1.68a2.54,2.54,0,0,0,0,.31,1.56,1.56,0,0,0,.32-.07,5.56,5.56,0,0,1,1.88-.49,1.7,1.7,0,0,0,.83-.32c.16-.12.33-.23.48-.36a3.72,3.72,0,0,0,1.47-2.41,8.73,8.73,0,0,0,.07-1.25,1.13,1.13,0,0,0-.12-.57v-.14a.68.68,0,0,1,.37.59A4.2,4.2,0,0,1,94,87a3.8,3.8,0,0,1-2,1,3.58,3.58,0,0,0-2.23,1l-.25.16h-.13V89" transform="translate(-41.68 -27.73)"/><path class="cls-5" d="M98.87,79.06l-.17.07.11.24.1.28h0l.12.28h0l.17.25.07.1.12,0a1.52,1.52,0,0,0,1-.64l0,0v0c0-.16.1-.33.16-.49h0a1.27,1.27,0,0,0-.27-1.39h0a3.35,3.35,0,0,0-1.42-1h0c-.39-.13-.77-.23-1.15-.35h0c-.43-.13-.85-.26-1.27-.41h0c-.22-.09-.44-.23-.69-.36h0l-.3-.13-.26-.11V76h0c.18,1,.4,1.9.67,2.83h0a2.93,2.93,0,0,0,1.79,1.83h0a1.75,1.75,0,0,0,.77.16,3.42,3.42,0,0,0,.46,0h0l.27-.13.12,0v-.13c-.07-.5-.27-.87-.27-1.24v-.11l-.18,0-.17.07.17-.07-.18,0v.15A12.42,12.42,0,0,0,99,80.47l.18,0-.08-.16-.24.11.07.16,0-.17-.41,0a1.59,1.59,0,0,1-.62-.12h0a2.62,2.62,0,0,1-1.59-1.61l-.06-.17.06.17c-.27-.92-.49-1.85-.67-2.79l-.18,0h.18v-.29h-.18l-.07.16.29.13h0c.23.11.46.26.73.36h0c.42.16.86.29,1.28.43h0l1.15.34h0a2.9,2.9,0,0,1,1.27.87h0a1,1,0,0,1,.27.65,1.09,1.09,0,0,1-.07.37h0a3.38,3.38,0,0,0-.17.51l.17.05-.14-.12c-.4.43-.42.44-.78.53l0,.17.14-.1-.14-.21-.12-.26-.1-.27h0L99,79l-.26-.62-.08.67Zm-.94,9.76L98,89c.7-.36,1.43-.7,2.13-1.11A5.8,5.8,0,0,0,102,86h0a2.32,2.32,0,0,0,.39-1.28h0c0-.4,0-.81,0-1.22v0h0a2.2,2.2,0,0,0-.09-.58v0a.45.45,0,0,0-.42-.36h-.08a1.11,1.11,0,0,0-.55.56h0l-.61,1.09h0a1.33,1.33,0,0,1-.46.53l.09.15.17.08c.08-.17.17-.34.25-.52h0c.09-.2.14-.4.22-.55h0c.08-.15.2-.3.32-.49h0l.28-.5,0-.07,0-.07a.4.4,0,0,0-.4-.3h-.1a3.06,3.06,0,0,0-.56.14h0a3.35,3.35,0,0,0-1.66,1.33h0c-.16.26-.31.53-.45.79h0a3.77,3.77,0,0,0-.44,1.66h0a8.16,8.16,0,0,1-.28,1.78h0c0,.13-.1.27-.14.43v.49L98,89h0l-.09-.16,0-.18h-.21l.17,0c0-.13.1-.26.14-.42h0a7.85,7.85,0,0,0,.3-1.86h0a3.43,3.43,0,0,1,.4-1.51h0c.14-.26.28-.52.43-.77h0A3,3,0,0,1,100.62,83h0a2.34,2.34,0,0,1,.49-.12h0l.06,0,.17-.06-.16-.09c-.09.16-.18.33-.28.49l0,0,0,0c-.09.15-.23.31-.33.51h0a5.58,5.58,0,0,0-.23.56h0c-.07.17-.16.34-.25.51l-.26.53.51-.29a1.59,1.59,0,0,0,.59-.66h0l.62-1.09h0a.8.8,0,0,1,.36-.4l-.07-.17v.18l.1.09h0a1.79,1.79,0,0,1,.08.49h0v0c0,.4,0,.8,0,1.22h0a1.94,1.94,0,0,1-.33,1.08h0A5.4,5.4,0,0,1,100,87.56c-.68.39-1.4.73-2.12,1.1l.08.16,0-.18ZM92,81l0-.18a5.25,5.25,0,0,0-.56,0h-.27a2.87,2.87,0,0,1-.88-.1l-.06.17,0,.18a3.31,3.31,0,0,1,.45,0h.56a2.77,2.77,0,0,0,1-.16l.13,0v-.14a1,1,0,0,0-.42-.66h0a3.5,3.5,0,0,0-2.06-.84h0a4.36,4.36,0,0,0-.51,0,7.93,7.93,0,0,0-1,.08h0l-2,.31h0l-1.67.24h0l-.23.07-.21.08.24.41,0,0,0,0a11.45,11.45,0,0,0,2.63,1.8h0a5,5,0,0,0,1.65.4q.34,0,.69,0a10.73,10.73,0,0,0,1.79-.16h0a3.8,3.8,0,0,0,.51-.13h0a1.32,1.32,0,0,0,.85-1l0-.14-.12-.07-.6-.33H92L92,81l-.09.16.6.32.08-.16-.17,0a1,1,0,0,1-.62.74h0a2.85,2.85,0,0,1-.46.12h0a10.12,10.12,0,0,1-1.73.16q-.33,0-.66,0a4.82,4.82,0,0,1-1.54-.37h0a11,11,0,0,1-2.54-1.74l-.11.14.15-.1,0,0h0L84.83,80l0,.18L86.54,80h0l2-.31h0a5.84,5.84,0,0,1,.93-.08,3.55,3.55,0,0,1,.46,0h0a3.08,3.08,0,0,1,1.86.74h0c.17.17.28.24.3.43h.18l-.06-.17a2.63,2.63,0,0,1-.89.13h-.56a4.26,4.26,0,0,0-.5,0l-.83.1.8.25a3.16,3.16,0,0,0,1,.12h.27a4.12,4.12,0,0,1,.51,0L92,81l-.09.16Zm-2.68,8,.16.08c.18-.38.36-.75.55-1.12h0a4.94,4.94,0,0,0,.41-1.23h0c.06-.32.14-.64.2-1h0A6.4,6.4,0,0,1,91.28,84h0a3.31,3.31,0,0,1,1.46-1.38h0a2.18,2.18,0,0,1,.61-.18h0c.33,0,.68-.07,1-.09a1.68,1.68,0,0,0,.89-.29h0c.15-.11.33-.2.51-.33l0,0,.15-.24.13-.19-.43-.15h-.06c-.75,0-1.49-.07-2.24-.09h0l-.38.08-.09,0,0,.08-.18.35h0a1.35,1.35,0,0,1-1,.77h0a3,3,0,0,1-.6.09c-.52,0-1,0-1.56,0H89a4.8,4.8,0,0,1-2.87-1h0c-.68-.52-1.35-1.07-2-1.61L84,80l.15-.1-.13-.2-.15.1,0,.18.27,0,0-.18V80h0l.45,0,.25,0h0c.91-.12,1.81-.25,2.72-.4h0a11.53,11.53,0,0,1,1.91-.22h.18a3.68,3.68,0,0,1,1.68.49h0c.51.28,1,.61,1.52.92l.09-.16-.16.07L93,81l0,.09.36.06h0l1.6.07h0c.31,0,.61,0,.89,0h0c1.07.1,2.14.07,3.2.09h0a2.47,2.47,0,0,0,.39,0h.06l.16-.15.12-.11-.29-.36-.06-.07H98.37a2,2,0,0,1-1.06-.31,6.4,6.4,0,0,1-.71-.52h0a1.61,1.61,0,0,1-.52-.78h0a18.19,18.19,0,0,1-.62-2.39h0A12,12,0,0,0,95,74.87h0c-.08-.21-.17-.4-.24-.6l-.17.07.18,0v0h0l-.1-.16,0,.18h.08l.12-.14-.17.08.13.27h0a2.84,2.84,0,0,0,1.63,1.5h0a14.86,14.86,0,0,0,1.64.51h0c.29.08.59.18.89.28h0a3,3,0,0,1,1.37,1h0a1,1,0,0,1,.28.66v.12h0c0,.18,0,.37,0,.52h.18l-.15-.09a2.18,2.18,0,0,1-.87,1h0l-.13.11,0,0-.09.17,0,.07.12.38,0,0,0,0a1.54,1.54,0,0,0,1,.43,6.2,6.2,0,0,0,.62.06l2.65,0H104l.3,0a1.87,1.87,0,0,0,.4,0,3,3,0,0,0,.67-.08l0-.18v.18l.29,0v-.18l-.11-.14-.15.1.11.15-.06-.17a1.65,1.65,0,0,1-.58.1l-.27,0a3.73,3.73,0,0,0-.48,0,1.18,1.18,0,0,0-.76.24l.11.14,0-.17-.14,0,0,.18v-.18h0a1.17,1.17,0,0,0-.81.38h0c-.15.17-.44.33-.54.68l0,.07.11.21v0a1,1,0,0,1,.26.74v0l.18,0h-.18c0,.37,0,.73,0,1.1h0a2.55,2.55,0,0,1-.09.85,2.88,2.88,0,0,1-.49.71h0l-.07.08h0a6.09,6.09,0,0,1-2.24,1.82c-.37.17-.72.36-1.08.54l0,0,0,0-.87.48h0l-.11.06,0,0-.12.13.17,0,.06-.21-.17,0,.17.06c.08-.25.18-.5.27-.76h0a9.6,9.6,0,0,0,.41-2.24h0a2.91,2.91,0,0,1,.27-1h0c.13-.27.3-.54.45-.83l0-.06,0,0A3.07,3.07,0,0,1,100,83h0a2.21,2.21,0,0,1,1-.34h0c.27,0,.54-.06.8-.1h.07l0-.06c.23-.31.56-.55.84-.89l.09-.11-.09-.12a.56.56,0,0,0-.45-.2h-.13c-.68,0-1.36,0-2,0-.45,0-.91,0-1.36,0s-.88,0-1.31,0H97.2a2.45,2.45,0,0,0-1.37.38l.1.15-.08-.16-.4.22h0A3.78,3.78,0,0,0,94,83.17h0a2.35,2.35,0,0,1-.49.61l.13.13.17,0c.11-.45.51-.83.66-1.4l0-.1-.07-.07-.4-.16h-.14A3.31,3.31,0,0,0,91,84.29h0A4,4,0,0,0,90.53,86h.18l-.17,0-.07.29.18,0-.18,0L90,87.87v0l0,.24h0v.34l.23,0a1.81,1.81,0,0,0,.35-.09h0a5.39,5.39,0,0,1,1.81-.48,1.71,1.71,0,0,0,.92-.35h0c.16-.11.33-.23.49-.36h0a3.93,3.93,0,0,0,1.53-2.52,9.26,9.26,0,0,0,.07-1.27h0a1.19,1.19,0,0,0-.15-.65l-.15.09h.17v-.14h-.18l-.08.16a.49.49,0,0,1,.27.45v0c0,.17,0,.34,0,.5a3.86,3.86,0,0,1-1.43,3.14h0a3.59,3.59,0,0,1-1.94.92,3.69,3.69,0,0,0-2.34,1.08l.13.12-.1-.15-.2.13h-.09v.18h.17V89h-.18l.16.08L89.31,89h-.18v.28h.36l.29-.18,0,0h0a3.37,3.37,0,0,1,2.12-1,4,4,0,0,0,2.13-1h0a4.26,4.26,0,0,0,1.56-3.42c0-.17,0-.35,0-.54h0a.88.88,0,0,0-.46-.73l-.26-.14v.48l0,0a.86.86,0,0,1,.1.47h0a7,7,0,0,1-.07,1.22,3.52,3.52,0,0,1-1.4,2.3h0c-.15.12-.31.23-.48.35h0a1.54,1.54,0,0,1-.74.29,5.63,5.63,0,0,0-1.93.51h0a2.16,2.16,0,0,1-.29.06l0,.17h.18v-.12h0V88h0c.15-.56.32-1.12.48-1.68l.07-.3v0a3.66,3.66,0,0,1,.41-1.51h0a3,3,0,0,1,2.59-1.84H94l.15.06.12-.13-.17,0c-.1.43-.5.81-.66,1.39l-.15.59.45-.42a2.66,2.66,0,0,0,.55-.7h0a3.54,3.54,0,0,1,1.34-1.26l-.1-.15.09.16.39-.22h0a2.11,2.11,0,0,1,1.17-.32h.25c.45,0,.89,0,1.34,0s.92,0,1.38,0c.68,0,1.35,0,2,0h.13l.17.07.14-.11-.14-.12c-.24.3-.57.55-.85.9l.15.11,0-.17c-.27,0-.53.08-.78.1h0a2.5,2.5,0,0,0-1.16.39h0a3.47,3.47,0,0,0-1.37,1.42v0c-.13.27-.3.54-.44.83h0a3.33,3.33,0,0,0-.31,1.18h0a9.15,9.15,0,0,1-.39,2.16l0,.06,0-.06c-.08.25-.18.49-.27.75h0l-.07.22,0,.11.09.08.27.11a.6.6,0,0,0,.27-.1h0l.87-.48,0,0,0,0c.36-.19.71-.37,1.06-.53a6.38,6.38,0,0,0,2.37-1.93l-.14-.11.14.12.07-.08h0a3.31,3.31,0,0,0,.55-.82,3,3,0,0,0,.11-1h0c0-.36,0-.73,0-1.1h0a1.38,1.38,0,0,0-.34-1l-.13.12.16-.08-.08-.14-.16.08.17,0c0-.19.24-.32.46-.52h0a.82.82,0,0,1,.56-.28h0l.17,0h0l0,0a.88.88,0,0,1,.54-.16,3.44,3.44,0,0,1,.43,0l.32,0a2.15,2.15,0,0,0,.7-.12h0l.18-.12.4-.29-.79-.06h0a3.06,3.06,0,0,1-.59.07l-.33,0a1.58,1.58,0,0,0-.37,0h-.11l-2.64,0-.58,0a1.3,1.3,0,0,1-.79-.36l-.1.14.17,0-.08-.23,0,0,.09-.08-.12-.14.08.16a2.54,2.54,0,0,0,1-1.11l0,0v0c0-.16,0-.34,0-.52h0v-.15a1.32,1.32,0,0,0-.37-.9h0a3.38,3.38,0,0,0-1.53-1.08h0c-.3-.09-.6-.2-.92-.28h0a16.37,16.37,0,0,1-1.6-.5h0a2.54,2.54,0,0,1-1.44-1.33l-.16.08.17-.07-.13-.27,0,0L95,74l0,0-.19,0h-.06l-.15.09-.07,0,0,.22v0l0,0c.08.21.17.41.25.6h0a11.38,11.38,0,0,1,.42,1.72h0a20.37,20.37,0,0,0,.63,2.44h0a2,2,0,0,0,.64.94l0,0,0,0c.23.17.47.37.74.54a2.39,2.39,0,0,0,1.25.36h1v-.18l-.14.11.18.23.14-.11-.12-.13-.12.11.13.13,0-.18-.34,0h0C98,81,97,81,95.9,80.92h0c-.32,0-.62,0-.91,0h0l-1.59-.07V81l0-.17-.17,0-.11-.28,0,0-.05,0c-.5-.31-1-.64-1.54-.93h0A4.13,4.13,0,0,0,89.7,79h-.2a12.77,12.77,0,0,0-2,.22h0c-.9.15-1.8.28-2.71.41h-.2l-.45,0h0l-.29.05-.28,0,.28.43,0,0,0,0c.67.54,1.34,1.09,2,1.62h0a5.16,5.16,0,0,0,3.09,1h.48c.53,0,1.05,0,1.57,0a2.93,2.93,0,0,0,.68-.11h0a1.68,1.68,0,0,0,1.2-1h0c0-.09.1-.19.17-.33L93,81.31l0,.17.37-.07,0-.18v.18l2.24.09v-.18l-.06.17h0v0l.15.1-.11-.15c-.14.11-.32.2-.5.32h0a1.22,1.22,0,0,1-.7.23c-.35,0-.7,0-1.06.1h0a2.18,2.18,0,0,0-.72.21h0A3.66,3.66,0,0,0,91,83.85h0a6.7,6.7,0,0,0-.68,1.88h0c-.06.32-.14.64-.21,1h0a4.12,4.12,0,0,1-.37,1.14h0c-.19.37-.37.75-.55,1.12l0,0v0Z" transform="translate(-41.68 -27.73)"/><path class="cls-5" d="M150.37,80.45l.25.12a2.07,2.07,0,0,0,1.13-.11,2.81,2.81,0,0,0,1.69-1.71c.27-.93.48-1.86.66-2.81v-.29l-.29.13a7.9,7.9,0,0,1-.71.36c-.42.16-.85.29-1.28.42l-1.14.35a3.09,3.09,0,0,0-1.34.91,1.09,1.09,0,0,0-.24,1.2c.07.17.12.34.17.5.39.42.49.49.88.58l.16-.23.12-.28.1-.28.1-.25a5.67,5.67,0,0,1-.26,1.39m1.45,8.41v-.23c0-.14-.1-.28-.14-.42a8,8,0,0,1-.29-1.82,3.51,3.51,0,0,0-.42-1.58c-.14-.26-.28-.53-.44-.78A3.06,3.06,0,0,0,149,82.78a2.5,2.5,0,0,0-.54-.13.23.23,0,0,0-.29.17c.09.15.18.33.28.5a5.39,5.39,0,0,1,.33.5c.09.17.14.37.22.55s.17.35.25.52a1.5,1.5,0,0,1-.52-.6l-.61-1.08a.94.94,0,0,0-.46-.48.27.27,0,0,0-.26.22,2.52,2.52,0,0,0-.08.54c0,.41,0,.83,0,1.25a2.12,2.12,0,0,0,.36,1.17,5.74,5.74,0,0,0,1.77,1.8c.69.4,1.42.74,2.13,1.1l.25,0m5.09-7.5a1.16,1.16,0,0,0,.74.86,4.21,4.21,0,0,0,.48.12,9.92,9.92,0,0,0,2.43.13,4.64,4.64,0,0,0,1.59-.39,11.11,11.11,0,0,0,2.58-1.76l.13-.22-.21-.08c-.56-.08-1.12-.15-1.68-.24l-2-.31a4.64,4.64,0,0,0-1.44,0,3.27,3.27,0,0,0-1.95.78.87.87,0,0,0-.36.55,8.15,8.15,0,0,0,2,.15,9.49,9.49,0,0,1-1.74.14l-.59.32m3.26,7.78H160l-.25-.16a3.58,3.58,0,0,0-2.23-1,3.74,3.74,0,0,1-2-1,4.19,4.19,0,0,1-1.47-3.79.66.66,0,0,1,.37-.59v.14a1,1,0,0,0-.12.57,7.49,7.49,0,0,0,.07,1.25,3.73,3.73,0,0,0,1.46,2.4l.48.36a1.7,1.7,0,0,0,.83.32,5.56,5.56,0,0,1,1.88.49,2.7,2.7,0,0,0,.31.08,1.57,1.57,0,0,0,0-.32c-.16-.56-.33-1.12-.49-1.68l-.06-.29a3.76,3.76,0,0,0-.43-1.58,3.14,3.14,0,0,0-2.73-1.94.47.47,0,0,0-.41.1c.13.49.53.88.66,1.39a2.7,2.7,0,0,1-.52-.66A3.74,3.74,0,0,0,154,81.93l-.39-.22a2.45,2.45,0,0,0-1.54-.34,21.79,21.79,0,0,1-2.68,0c-.68,0-1.36,0-2,0-.14,0-.31,0-.44.14.26.31.59.56.84.89.27,0,.53.08.79.1a2.4,2.4,0,0,1,1.08.37,3.29,3.29,0,0,1,1.3,1.34c.13.29.3.56.44.84a3,3,0,0,1,.29,1.11,9.26,9.26,0,0,0,.4,2.2c.08.25.18.5.27.75l.06.21c-.14.12-.24,0-.34,0l-.87-.48c-.36-.18-.71-.37-1.07-.54a6.16,6.16,0,0,1-2.3-1.87l-.07-.07a1.87,1.87,0,0,1-.62-1.67c0-.37,0-.73,0-1.1a1.23,1.23,0,0,1,.3-.88l.08-.14c-.08-.27-.32-.42-.5-.6a.93.93,0,0,0-.7-.33l-.14,0a1.38,1.38,0,0,0-1.1-.16,2,2,0,0,1-.94-.09l-.15-.11.3,0a2.31,2.31,0,0,0,1,0,3.4,3.4,0,0,1,.45,0l2.64,0,.6,0a1.4,1.4,0,0,0,.87-.4l.1-.3-.08-.14-.11-.1a2.29,2.29,0,0,1-1-1c0-.15,0-.33,0-.51a1.16,1.16,0,0,1,.31-.92,3.31,3.31,0,0,1,1.45-1c.3-.09.6-.2.9-.27.55-.14,1.08-.32,1.62-.51a2.69,2.69,0,0,0,1.53-1.41l.13-.27.05,0h.13l.09,0,0,.14c-.08.2-.17.39-.25.6a11.34,11.34,0,0,0-.43,1.74,18.13,18.13,0,0,1-.62,2.41A1.88,1.88,0,0,1,153,80c-.24.18-.47.37-.72.53a2.16,2.16,0,0,1-1.19.33h-1l-.19.23.12.11a2.6,2.6,0,0,0,.4,0c1.06,0,2.12,0,3.18-.09.3,0,.6,0,.9,0l1.6-.07.26,0,.15-.37c.5-.3,1-.63,1.52-.92a4,4,0,0,1,1.76-.5,10.91,10.91,0,0,1,2.13.21c.9.15,1.8.28,2.71.41.22,0,.46,0,.69,0l.27,0-.12.19c-.68.54-1.34,1.1-2,1.62a5,5,0,0,1-3,1c-.68,0-1.36,0-2,0a3.55,3.55,0,0,1-.64-.1,1.5,1.5,0,0,1-1.08-.87c-.05-.11-.11-.21-.18-.34l-.37-.08-2.24.09-.22.08.14.21.5.32a1.41,1.41,0,0,0,.79.26c.35,0,.7,0,1,.09a2.17,2.17,0,0,1,.67.2,3.46,3.46,0,0,1,1.53,1.45,6.31,6.31,0,0,1,.66,1.82c.06.33.14.65.21,1a4.42,4.42,0,0,0,.39,1.18c.19.37.37.75.55,1.12v.11" transform="translate(-41.68 -27.73)"/><path class="cls-5" d="M150.37,80.45l-.07.16.24.12h.06a2.28,2.28,0,0,0,.45,0,1.75,1.75,0,0,0,.77-.16h0a2.94,2.94,0,0,0,1.79-1.82h0c.27-.93.49-1.88.67-2.83h0v-.58l-.56.24h0A6.55,6.55,0,0,1,153,76h0c-.4.15-.83.28-1.26.41h0c-.38.12-.76.22-1.15.35h0a3.21,3.21,0,0,0-1.43,1h0a1.3,1.3,0,0,0-.37.88,1.34,1.34,0,0,0,.11.51h0c.06.15.11.32.16.48v0l0,0a1.55,1.55,0,0,0,1,.63l.12,0,.23-.33v0l.12-.29h0l.11-.29-.17-.06.16.07.11-.25-.17-.07-.17,0v.11c0,.37-.2.74-.26,1.24l0,.13.12,0,.07-.16.18,0a8.19,8.19,0,0,0,.27-1.28v-.14l-.07-.7-.38.89h0l-.1.29-.11.25L150,80l.15.11,0-.18c-.37-.09-.39-.1-.79-.53l-.13.13.17-.06c-.05-.15-.1-.33-.17-.51h0a.85.85,0,0,1-.08-.37,1,1,0,0,1,.28-.64h0a2.91,2.91,0,0,1,1.27-.86h0l1.14-.35h0c.42-.13.86-.26,1.28-.42h0a6.22,6.22,0,0,0,.73-.37l-.08-.16.07.17,0,0h.18l-.17,0c-.18.94-.4,1.87-.67,2.79h0a2.62,2.62,0,0,1-1.59,1.6l0,0,0,0a1.4,1.4,0,0,1-.62.12,2.69,2.69,0,0,1-.4,0l0,.18.08-.17-.25-.11-.08.16.18,0Zm1.45,8.41H152v-.26c0-.16-.1-.3-.14-.43a8.16,8.16,0,0,1-.28-1.78h0a3.73,3.73,0,0,0-.44-1.65h0c-.14-.26-.28-.53-.45-.79h0A3.22,3.22,0,0,0,149,82.61h0a3,3,0,0,0-.57-.14h-.09a.41.41,0,0,0-.4.31l0,.07,0,.07c.09.15.18.33.29.5h0c.11.19.24.34.32.49h0c.08.15.13.34.21.54h0l.26.52.16-.08.09-.16a1.24,1.24,0,0,1-.45-.53l0,0,0,0-.62-1.08h0a1.09,1.09,0,0,0-.54-.56l0,0h0a.45.45,0,0,0-.42.36h0a2.13,2.13,0,0,0-.09.58h0v0c0,.41,0,.82,0,1.22h0a2.29,2.29,0,0,0,.39,1.27l0,.08,0-.08a5.77,5.77,0,0,0,1.83,1.85h0c.7.41,1.43.75,2.14,1.11h0l.27,0,.22,0v-.23h-.17l0-.18-.25-.05,0,.18.08-.16c-.72-.37-1.44-.7-2.12-1.1h0a5.37,5.37,0,0,1-1.71-1.74h0a1.94,1.94,0,0,1-.33-1.08h0c0-.41,0-.82,0-1.21v0h0a2.07,2.07,0,0,1,.07-.49h0l.11-.09,0-.17-.06.16a.84.84,0,0,1,.36.4h0c.2.37.41.73.61,1.09h0a1.68,1.68,0,0,0,.59.66l.51.3-.26-.53c-.08-.18-.17-.34-.25-.51v0c-.07-.16-.12-.36-.22-.57h0c-.11-.2-.24-.36-.33-.52h0c-.1-.16-.19-.33-.28-.49l-.16.09.17.05.06-.05h0a2,2,0,0,1,.49.12h0a2.93,2.93,0,0,1,1.48,1.18h0c.15.24.29.51.44.77h0a3.52,3.52,0,0,1,.39,1.5h0a7.85,7.85,0,0,0,.3,1.86c.05.15.1.29.14.42l.17-.05h-.18v.22h.18l0-.18Zm5.09-7.5-.17,0a1.33,1.33,0,0,0,.86,1h0a4.23,4.23,0,0,0,.51.13h0a10.72,10.72,0,0,0,1.79.15c.23,0,.46,0,.69,0a5,5,0,0,0,1.65-.4h0a11.67,11.67,0,0,0,2.62-1.79l0,0,.15-.25.11-.19-.42-.15h0L163,79.6h0l-2-.31a6.38,6.38,0,0,0-1-.09,2.92,2.92,0,0,0-.51,0,3.43,3.43,0,0,0-2.05.83h0a1,1,0,0,0-.42.66v.14l.13,0a2.76,2.76,0,0,0,1,.15h.55a3.46,3.46,0,0,1,.46,0l0-.18-.05-.17a2.93,2.93,0,0,1-.89.1h-.25a5.44,5.44,0,0,0-.57,0h-.06l-.59.33-.13.07,0,.13.17,0,.09.16.59-.32L157.5,81l0,.18a4.17,4.17,0,0,1,.52,0h.25a3.56,3.56,0,0,0,1-.11l.8-.26-.83-.09a4.49,4.49,0,0,0-.51,0h-.55a2.29,2.29,0,0,1-.88-.13l-.07.17h.18c0-.19.13-.26.31-.43h0a3.15,3.15,0,0,1,1.84-.74,3.71,3.71,0,0,1,.47,0,7.14,7.14,0,0,1,.92.08l2,.32h0l1.67.24,0-.18-.06.17h0l0,0,.15.1-.11-.14a11,11,0,0,1-2.54,1.74h0a4.76,4.76,0,0,1-1.53.37c-.22,0-.44,0-.66,0a10,10,0,0,1-1.73-.15h0a2.5,2.5,0,0,1-.45-.12h0a1,1,0,0,1-.63-.73l-.17,0,.09.16Zm3.26,7.78V89h-.09l-.21-.13-.09.15.13-.12a3.77,3.77,0,0,0-2.34-1.08,3.59,3.59,0,0,1-1.94-.92,3.87,3.87,0,0,1-1.42-3.13c0-.17,0-.33,0-.51v0a.49.49,0,0,1,.27-.44l-.08-.16h-.18v.14h.18l-.15-.1a1.23,1.23,0,0,0-.15.65v0h0a7.79,7.79,0,0,0,.07,1.27h0a4,4,0,0,0,1.53,2.53h0c.16.13.33.24.49.35h0a1.8,1.8,0,0,0,.92.36,5.15,5.15,0,0,1,1.81.47h0a1.81,1.81,0,0,0,.35.09l.24.06,0-.24a1.5,1.5,0,0,0,0-.36h0L159,86.18l-.18,0,.18,0L159,85.9l-.17,0H159a4.06,4.06,0,0,0-.45-1.66h0a3.31,3.31,0,0,0-2.88-2h-.15l-.39.16-.08.07,0,.1c.15.56.55,1,.66,1.39l.17,0,.12-.13a2.48,2.48,0,0,1-.48-.61h0a3.81,3.81,0,0,0-1.46-1.39h0l-.4-.23-.08.16.09-.15a2.4,2.4,0,0,0-1.36-.38H152c-.43,0-.87,0-1.31,0s-.9,0-1.36,0c-.68,0-1.36,0-2,0h-.13a.56.56,0,0,0-.45.2l-.09.12.09.11c.28.34.6.58.84.89l.05.06h.07c.26,0,.53.08.8.1h0a2.21,2.21,0,0,1,1,.34h0a3.09,3.09,0,0,1,1.24,1.27h0c.15.3.32.57.45.84h0a2.81,2.81,0,0,1,.27,1h0a10.15,10.15,0,0,0,.41,2.24h0c.09.26.19.51.27.76l.17-.06-.17,0,.06.22.17,0-.11-.13,0,0-.1-.06h0l-.87-.48h0c-.35-.18-.71-.37-1.08-.54h0a6.14,6.14,0,0,1-2.23-1.82h0l-.06-.07h0a2.61,2.61,0,0,1-.49-.71,2.51,2.51,0,0,1-.09-.85h0c0-.36,0-.73,0-1.09h0a1.08,1.08,0,0,1,.25-.73l0,0,.09-.17,0-.06,0-.07c-.1-.35-.39-.51-.54-.68h0a1.17,1.17,0,0,0-.81-.38h0v.18l.05-.18-.14,0,0,.17.11-.14a1.18,1.18,0,0,0-.76-.24,3.88,3.88,0,0,0-.48,0l-.26,0a1.7,1.7,0,0,1-.59-.1l-.06.17.11-.14-.15-.11-.11.14,0,.18.29,0v-.18l0,.18a2.84,2.84,0,0,0,.66.08,1.87,1.87,0,0,0,.4,0h0l.28,0h.13l2.65,0,.61,0h0a1.57,1.57,0,0,0,1-.43l0,0,.12-.36,0-.07-.11-.21,0,0-.14-.12v0h0a2.3,2.3,0,0,1-.87-1l-.16.08h.18c0-.15,0-.33,0-.52h0v-.11a1,1,0,0,1,.27-.67h0a3.14,3.14,0,0,1,1.37-1h0c.31-.09.6-.2.9-.27h0c.56-.14,1.09-.32,1.63-.51h0a2.84,2.84,0,0,0,1.63-1.5h0l.12-.23,0,0-.12-.13,0,.18h.06l0,0,.1-.16-.18,0,0,.13.18,0-.17-.07c-.07.2-.16.39-.24.6h0a12.1,12.1,0,0,0-.45,1.77h0a17.07,17.07,0,0,1-.61,2.39h0a1.63,1.63,0,0,1-.52.77h0a7.42,7.42,0,0,1-.7.52h0a2.05,2.05,0,0,1-1.08.31H150l-.24.3-.11.13.25.22,0,0H150a2.56,2.56,0,0,0,.39,0h0c1.06,0,2.13,0,3.2-.09.28,0,.58,0,.89,0l1.59-.07h0l.27,0,.1,0,.19-.46-.17-.07.09.16c.51-.31,1-.64,1.52-.92h0a3.8,3.8,0,0,1,1.67-.49H160a12.69,12.69,0,0,1,1.92.22h0c.9.15,1.8.28,2.71.4l.25,0h.47v-.18l0,.17.28,0,0-.17-.15-.1-.12.19.15.1-.12-.14c-.67.54-1.34,1.1-2,1.61a4.77,4.77,0,0,1-2.87,1H160l-1.54,0h0a3.13,3.13,0,0,1-.59-.09h0a1.37,1.37,0,0,1-1-.77h0l-.18-.35,0-.08-.45-.09h0c-.75,0-1.5,0-2.25.08h0l-.25.09-.21.07.26.4v0l0,0c.18.13.36.22.5.33h0a1.74,1.74,0,0,0,.89.29c.35,0,.69,0,1,.09h0a2.21,2.21,0,0,1,.6.18h0A3.25,3.25,0,0,1,158.21,84a6.28,6.28,0,0,1,.65,1.77h0c.06.34.14.66.2,1h0a4.5,4.5,0,0,0,.41,1.22h0c.19.37.37.74.55,1.12l.16-.08H160v.11h.18v0h.18V89l0,0c-.18-.37-.36-.75-.55-1.12h0a4.56,4.56,0,0,1-.38-1.13h0c-.06-.34-.14-.66-.2-1h0a6.75,6.75,0,0,0-.68-1.87,3.66,3.66,0,0,0-1.61-1.53h0a2.12,2.12,0,0,0-.72-.21h0a9.5,9.5,0,0,0-1.06-.1,1.32,1.32,0,0,1-.7-.22h0c-.17-.13-.35-.22-.5-.33l-.1.15.15-.1v0h0l-.06-.17v.18c.75,0,1.49-.07,2.24-.09v-.18l0,.18.37.08,0-.18-.16.08c.07.14.13.24.17.33h0a1.67,1.67,0,0,0,1.21,1h0a2.93,2.93,0,0,0,.68.11l1.55,0h.5a5.15,5.15,0,0,0,3.08-1c.69-.52,1.36-1.08,2-1.62l0,0,.14-.21.16-.24-.55-.08h-.7c-.9-.12-1.81-.25-2.7-.4h0a11.53,11.53,0,0,0-2-.23h-.19a4,4,0,0,0-1.83.53h0c-.53.29-1,.62-1.53.92l-.05,0-.14.33-.16,0,0,.17v-.18l-1.59.07c-.29,0-.6,0-.91,0-1,.1-2.11.07-3.18.09h0l-.33,0,0,.18.12-.13-.12-.11-.12.13.14.11.19-.23-.14-.11V81h1a2.4,2.4,0,0,0,1.26-.36h0a8.84,8.84,0,0,0,.74-.54h0a2.06,2.06,0,0,0,.64-.94h0a18.05,18.05,0,0,0,.62-2.43h0a12.72,12.72,0,0,1,.43-1.72h0c.08-.19.17-.39.24-.6l0,0,0-.18,0-.09-.16-.1-.05,0-.19,0h-.06l-.09.08,0,0-.14.3.16.08-.16-.09a2.49,2.49,0,0,1-1.43,1.33h0a15.56,15.56,0,0,1-1.6.5h0c-.32.08-.62.19-.92.28h0a3.55,3.55,0,0,0-1.53,1.07l-.12.14.12-.14a1.39,1.39,0,0,0-.36.91v.15c0,.18,0,.36,0,.51v.07a2.6,2.6,0,0,0,1,1.11l.09-.16-.12.14.09.08,0,0-.07.23.17,0-.11-.14a1.22,1.22,0,0,1-.78.36h0l-.58,0-2.64,0h-.13l-.35,0h0l-.33,0a3.06,3.06,0,0,1-.59-.07h0l-.32,0-.49,0,.55.41h0a2.16,2.16,0,0,0,.71.12l.31,0a3.44,3.44,0,0,1,.43,0,.88.88,0,0,1,.54.16l0,0,.17.05h.07a.78.78,0,0,1,.55.28h0c.22.2.41.33.45.52l.18,0-.16-.08-.08.14.16.08-.13-.12a1.38,1.38,0,0,0-.35,1v0h0c0,.37,0,.74,0,1.1h0a3.07,3.07,0,0,0,.11,1,3,3,0,0,0,.55.81h0l.06.07.14-.12-.14.12A6.5,6.5,0,0,0,150,88.42h0c.36.16.71.34,1.06.53h0l.88.48.08-.16-.09.16a.72.72,0,0,0,.28.1l.27-.11.09-.08-.09-.32h0c-.09-.26-.19-.5-.27-.75h0a9.15,9.15,0,0,1-.39-2.16h0a3.23,3.23,0,0,0-.31-1.17h0c-.14-.3-.31-.56-.44-.83h0a3.41,3.41,0,0,0-1.37-1.42h0a2.47,2.47,0,0,0-1.15-.39h0c-.25,0-.51-.07-.78-.11l0,.18.14-.11c-.27-.35-.6-.6-.84-.9l-.14.12.14.11.17-.07h.13c.67,0,1.35,0,2,0,.46,0,.91,0,1.37,0s.89,0,1.34,0h.25a2.11,2.11,0,0,1,1.17.32h0l.4.23.09-.16-.1.15a3.49,3.49,0,0,1,1.33,1.25h0a2.41,2.41,0,0,0,.56.71l.45.41-.16-.59c-.15-.57-.56-1-.65-1.38l-.18,0,.13.13.14-.06h.12a3,3,0,0,1,2.59,1.84h0A3.66,3.66,0,0,1,158.6,86h0l.07.31h0c.16.56.33,1.12.48,1.68h0a.92.92,0,0,1,0,.27h.18l0-.18a2.16,2.16,0,0,1-.29-.06h0a5.63,5.63,0,0,0-1.93-.51,1.58,1.58,0,0,1-.74-.29h0c-.16-.12-.33-.23-.48-.35h0a3.56,3.56,0,0,1-1.4-2.29h0a8.18,8.18,0,0,1-.06-1.22h0a.85.85,0,0,1,.1-.46l0,0v-.19l0-.29-.25.14a.86.86,0,0,0-.46.73h0c0,.18,0,.36,0,.54a4.27,4.27,0,0,0,1.55,3.41,4,4,0,0,0,2.13,1,3.37,3.37,0,0,1,2.12,1h0l.27.17.05,0h.35v-.18Z" transform="translate(-41.68 -27.73)"/><path class="cls-5" d="M75.36,49.63c-1.43-1.77-2.73-2.76-5-1.26-2.44,1.6-1.84,3.05-.72,5.1a29.91,29.91,0,0,0,3.19,4.78c1.39,1.79,2.62,2.94,4.94,1.42s1.88-3.19.79-5.26a30.54,30.54,0,0,0-3.18-4.78M78.55,61a7.82,7.82,0,0,1-11.2-2.31c-2.46-3.76-2.07-8.42,2.27-11.26a7.77,7.77,0,0,1,11.16,2.33c2.47,3.75,2.07,8.42-2.23,11.24" transform="translate(-41.68 -27.73)"/><path class="cls-5" d="M116.22,45.63l-7.13,2c-.22.06-.33.06-.37-.08s-.11-.72.14-.79l1.37-.39c.28-.07.22-.44-.07-1.46l-2.59-9.11c-.64-2.28-2.09-1.74-3.16-1.48-1.83.45-3.07,1.92-2.6,3.38l2.52,8.86c.28,1,.42,1.36.73,1.27l1.37-.39c.21-.06.42.48.46.62s0,.2-.23.26l-7.1,2c-.25.07-.33.05-.37-.09s-.1-.72.14-.78l1.38-.39c.28-.08.21-.44-.08-1.46L98.05,38.5c-.65-2.29-1.89-2-3.34-1.6-2.07.58-2.79,2.19-2.53,3.14l2.62,9.21c.29,1,.42,1.36.74,1.27l1.37-.38c.21-.06.42.48.46.62s0,.19-.23.25l-7.21,2c-.21.06-.29.05-.33-.09s-.11-.72.1-.78l1.44-.41c.32-.09.26-.45,0-1.47l-3-10.68c-.29-1-.41-1.33-.73-1.24l-1.44.41c-.21.06-.35-.14-.39-.28s0-.2.23-.26l5.1-1.43c.28-.08.33,0,.36.08l.39,1.38.07,0c.34-1.2,1.13-2.45,3.45-3.1a4.73,4.73,0,0,1,5.36,1.94h0c-.23-2.06,1.57-3.89,4.14-4.62,2.32-.65,5.89-.22,7.06,3.93l2.13,7.49c.29,1,.42,1.36.74,1.28l1.4-.4c.25-.07.46.47.5.61s-.06.2-.27.26" transform="translate(-41.68 -27.73)"/><path class="cls-5" d="M134.32,36.08c-.2-2.79-.76-3.84-3.17-3.91-2.23-.07-3.35,1.21-3.38,2.07l-.29,8.63c0,.86.83,2.12,3,2.18,2.41.08,3.25-.57,3.6-3.41a39.93,39.93,0,0,0,.19-5.56m-3,10.48c-2.08-.07-3.26-.71-3.89-1.79h0l-.29,9.33c0,1.09,0,1.42.32,1.43l1.86.06c.26,0,.3.55.3.7s-.12.18-.34.17l-7.91-.25c-.22,0-.29-.05-.29-.19s.11-.69.33-.68l1.49,0c.33,0,.38-.31.41-1.41L124,32.6c0-1.06,0-1.39-.32-1.4l-1.5-.05a.28.28,0,0,1-.28-.32c0-.15.07-.38.29-.38l5.29.17c.29,0,.32.09.32.2l0,1.45h.08a4.45,4.45,0,0,1,4-2c3.76.12,7.06,3.08,6.89,8.33s-3.61,8-7.41,7.91" transform="translate(-41.68 -27.73)"/><path class="cls-5" d="M147,44.4l2.43-9.83c0-.11,0-.27-.29-.34l-1.77-.44c-.28-.07-.1-1-.07-1.13s.16-.19.41-.13l1.76.44c.29.07.39,0,.41-.12l.81-3.26a.48.48,0,0,1,.4-.39,6.22,6.22,0,0,0,3.42-1.33c.13-.08.23-.17.37-.14s.19.16.14.34l-1.42,5.7c0,.11,0,.23.3.31l3.66.9c.28.07.34.16.3.3s-.37,1-.62.9l-3.65-.9c-.29-.08-.39,0-.42.16L150.5,46.08c-.36,1.45-.33,2.07.81,2.35s1.55.09,1.91-1.37c.09-.35.45-.25.73-.18s.23.13.16.42c-.52,2.09-1.9,2.65-4,2.13a3.93,3.93,0,0,1-3.12-5" transform="translate(-41.68 -27.73)"/><path class="cls-5" d="M173.54,46.46c.74-2,1-3.56-1.41-4.66s-3.47,0-4.59,1.94a37,37,0,0,0-2.72,5.59c-.78,2-1,3.57,1.36,4.7s3.48-.09,4.63-2a36.15,36.15,0,0,0,2.73-5.59m-7.95,8.66a7.81,7.81,0,0,1-3.84-10.77c1.93-4.05,6.12-6.14,10.8-3.91a7.78,7.78,0,0,1,3.81,10.75c-1.94,4.05-6.13,6.14-10.77,3.93" transform="translate(-41.68 -27.73)"/><path class="cls-5" d="M194,47.31a2.22,2.22,0,0,1-.45-3.14,2.25,2.25,0,0,1,3.17-.44,2.22,2.22,0,0,1,.4,3.15,2.19,2.19,0,0,1-3.12.43m-9.73,19.14-6-4.57c-.17-.13-.21-.2-.12-.32s.5-.64.68-.51L180,62c.26.2.51-.07,1.15-.91l6.46-8.46c.64-.84.81-1.13.55-1.33l-1.2-.9c-.17-.13.14-.63.23-.75s.17-.1.34,0l4.31,3.27c.2.15.19.23.12.32l-7.76,10.13c-.64.85-.83,1.16-.57,1.36l1.2.9c.17.14-.12.75-.21.87s-.17.1-.34,0" transform="translate(-41.68 -27.73)"/><path class="cls-5" d="M194.43,76.35l-5.36-5.83c-.15-.16-.18-.24-.07-.34s.72-.61.87-.45l1,1.1c.23.24.52,0,1.3-.69l7.73-7c.78-.72,1-1,.78-1.21l-1-1.1c-.15-.16.26-.66.37-.76s.18-.07.33.09L204,64c.2.22.17.3.09.37l-1.13,1,.05,0a4,4,0,0,1,4,1.2,3.33,3.33,0,0,1-.13,4.52,2.06,2.06,0,0,1-3-.12,1.94,1.94,0,0,1,.06-2.79c.86-.79,1.58-.17,2.07-.61.29-.27-.16-.61-.41-.87a3.67,3.67,0,0,0-4.41.38L194.78,73c-.78.71-1,1-.8,1.23l1.26,1.37c.17.19-.34.81-.45.91s-.18.07-.36-.12" transform="translate(-41.68 -27.73)"/><path class="cls-5" d="M56.27,57a9.23,9.23,0,0,0-1.21-.48,9.91,9.91,0,0,0-2.61-.71,6.84,6.84,0,0,0-2.72.22A6.67,6.67,0,0,0,47,57.71a7.4,7.4,0,0,0-2.22,3.44,5.92,5.92,0,0,0,.22,3.4,12.46,12.46,0,0,0,2.07,3.52c1,1.2,2.08,2.46,3.35,3.77a13.05,13.05,0,0,0,2.85,2.47,10.44,10.44,0,0,0,3.53,1.8,4.84,4.84,0,0,0,3-.19A9.19,9.19,0,0,0,62.59,74a6.29,6.29,0,0,0,1.6-2.4,8,8,0,0,0,.47-2.74A9.44,9.44,0,0,0,64.2,66a4.9,4.9,0,0,0-.74-1.74l.4-.38L69,69.21l-.4.38a1.16,1.16,0,0,0-.69-.12,1.39,1.39,0,0,0-.63.39,4.17,4.17,0,0,0-.65.88c-.22.4-.49.85-.79,1.35s-.66,1-1,1.59a11.37,11.37,0,0,1-1.39,1.6A12.51,12.51,0,0,1,59.16,78a13.16,13.16,0,0,1-9.72,0,12.38,12.38,0,0,1-7.1-7.54,13.87,13.87,0,0,1-.63-5.07,13.72,13.72,0,0,1,1.19-4.78,12.07,12.07,0,0,1,2.62-3.8,9.43,9.43,0,0,1,1.63-1.28c.55-.34,1.07-.65,1.57-.92l1.36-.71a3.72,3.72,0,0,0,.94-.62,1.68,1.68,0,0,0,.44-.59.82.82,0,0,0-.17-.68l.4-.38,4.91,5.09Z" transform="translate(-41.68 -27.73)"/><path class="cls-5" d="M117.9,131.84h-5.29c-.3,0-.33-.08-.33-.19v-1.42h-.08c-.65,1.06-1.75,2.05-4.16,2.05s-5.73-1.39-5.73-5.7v-7.64c0-1.1,0-1.42-.36-1.42h-1.46c-.22,0-.29-.72-.29-.87s.08-.18.3-.18h5.36c.26,0,.29.07.29.18l0,11.52c0,2.7,1.71,2.5,2.77,2.5,2.16,0,3.29-1.41,3.29-2.39l0-9.34c0-1.1,0-1.42-.36-1.42H110.4c-.21,0-.28-.72-.28-.87s.08-.18.3-.18h5.33c.25,0,.29.07.29.18L116,129.54c0,1.06,0,1.39.37,1.39h1.5c.22,0,.33.58.33.72s-.07.19-.29.19" transform="translate(-41.68 -27.73)"/><path class="cls-5" d="M126.26,110.7a2.23,2.23,0,0,1-2.27-2.23,2.26,2.26,0,0,1,2.27-2.26,2.22,2.22,0,0,1,2.22,2.26,2.19,2.19,0,0,1-2.22,2.23m3.79,21.14H122.5c-.22,0-.29,0-.29-.19s0-.72.24-.72H124c.33,0,.37-.37.37-1.42l0-10.61c0-1.06,0-1.38-.37-1.38h-1.49c-.22,0-.28-.72-.28-.87s.07-.18.29-.18h5.4c.26,0,.29.07.29.18l0,12.86c0,1.05,0,1.42.36,1.42H130c.22,0,.34.58.34.72s-.08.19-.3.19" transform="translate(-41.68 -27.73)"/><path class="cls-5" d="M142.17,131.84h-7.55c-.22,0-.29,0-.29-.19s0-.72.24-.72h1.5c.33,0,.36-.37.36-1.42l0-21c0-1.06,0-1.39-.37-1.39h-1.49c-.22,0-.28-.72-.28-.87s.07-.18.29-.18H140c.26,0,.29.08.29.18V129.8c0,1,0,1.13.32,1.13h1.5c.22,0,.34.58.34.72s-.08.19-.3.19" transform="translate(-41.68 -27.73)"/><path class="cls-5" d="M154.16,117c-2,0-2.57,1.5-2.79,3.87,0,.65-.06.48-.06,1,0,.22.15.22.25.22h5.08a.29.29,0,0,0,.29-.3,12,12,0,0,0-.26-2.46c-.3-1.6-1-2.33-2.51-2.33m-7.39,7.25c0-4.2,2.27-8.18,7.45-8.18,3.83,0,6.79,2.19,6.79,5.58,0,1.1-.37,1.43-1.1,1.43h-8.39c-.11,0-.26,0-.26.22a32.57,32.57,0,0,0,.15,4.2c.18,2.11.75,3.53,3.64,3.53s4.91-1.32,4.91-4.68c0-.43.65-.46.94-.46s.29.15.29.4c0,2.74-1.64,6-6.35,6-5.44,0-8.07-3.47-8.07-8.07" transform="translate(-41.68 -27.73)"/><path class="cls-5" d="M171.67,132.28a10.65,10.65,0,0,1-3.74-.57c-.51-.22-1.1-.37-1.1,0v.11c0,.22-.2.27-.35.27s-.21-.07-.21-.33v-5.47c0-.26.07-.33.21-.33a.37.37,0,0,1,.35.38v.51c0,3.22,2.12,4.05,4.35,4.05,2,0,3.17-.72,3.17-2.11,0-4.31-8-2.72-8-8.23,0-1.87,1.39-4.53,5.11-4.53a8.69,8.69,0,0,1,3,.58c.54.22,1.09.44,1.09,0v-.11c0-.22.08-.29.22-.29s.18.07.18.29v4.93c0,.22-.07.3-.18.3s-.22-.08-.22-.3v-.36c0-3-2-3.78-4-3.78-1.79,0-2.47.79-2.47,1.85,0,4.19,8.31,2.91,8.31,8.43,0,2.26-1.93,4.71-5.69,4.71" transform="translate(-41.68 -27.73)"/><path class="cls-5" d="M95.9,132.42H87.46c-.26,0-.38-.07-.38-.22s.08-.75.38-.75H89c.33,0,.37-.34.37-1.53V119.53c0-.15-.07-.26-.34-.26H79.31c-.26,0-.34.07-.34.26v10.39c0,1.19,0,1.53.38,1.53h1.57c.26,0,.37.6.37.75s-.07.22-.37.22H72.47c-.22,0-.34-.07-.34-.22s.08-.75.34-.75H74c.37,0,.41-.34.41-1.53V108.73c0-1.2,0-1.54-.41-1.54H72.47c-.22,0-.34-.78-.34-.93s.08-.22.34-.22h8.45c.26,0,.37.07.37.22s-.07.93-.37.93H79.35c-.34,0-.38.34-.38,1.54v9.12c0,.15.08.26.34.26h9.75c.23,0,.34-.11.34-.3v-9.08c0-1.2,0-1.54-.37-1.54H87.46c-.26,0-.38-.78-.38-.93s.08-.22.38-.22H95.9c.26,0,.34.07.34.22s-.08.93-.34.93H94.33c-.33,0-.41.34-.41,1.54v21.19c0,1.19,0,1.53.41,1.53H95.9c.23,0,.34.6.34.75s-.08.22-.34.22" transform="translate(-41.68 -27.73)"/></svg>